<svg width="375" height="70" viewBox="0 0 375 70" fill="none" xmlns="http://www.w3.org/2000/svg">
<rect width="375" height="70" fill="white"/>
<g clip-path="url(#clip0_1_1139)">
<path d="M22.1393 31.304C22.1393 35.4461 29.9641 33.9627 29.9641 39.4148C29.9641 42.189 27.5357 44 24.7508 44C22.7657 44 21.06 43.3835 20.1349 42.5551L20 38.7213H20.2216C20.7324 41.6496 22.4959 43.6629 24.799 43.6629C26.8805 43.6629 28.1332 42.2854 28.1332 40.4455C28.1332 35.5617 20.3084 37.4401 20.3084 32.2288C20.3084 29.888 22.2549 28 25.2133 28C26.7648 28 28.085 28.5298 29.2607 29.2812V32.5178H29.0583C28.615 29.9266 27.1117 28.3082 25.1266 28.3082C23.1415 28.3082 22.1393 29.705 22.1393 31.304Z" fill="#1D1D1B"/>
<path d="M44.5056 28.2214L44.8333 32.8548H44.6309C43.6191 29.5508 42.8867 28.626 40.7185 28.626H39.1092V42.0252C39.1092 43.2871 39.7259 43.4219 41.2485 43.5568V43.7783H34.8595V43.5568C36.3821 43.4219 37.0277 43.2871 37.0277 42.0252V28.6164H35.3895C33.2213 28.6164 32.4986 29.5508 31.4771 32.8452H31.2747L31.6216 28.2214H44.5056Z" fill="#1D1D1B"/>
<path d="M48.0326 43.7785H43.5709V43.5569C44.4092 43.4702 45.0549 43.3354 45.3151 42.6033L50.2393 29.4642L49.69 28.0193H51.8583L57.5631 42.7381C57.804 43.3354 58.4496 43.5376 59.1724 43.5569V43.7785H53.2941V43.5569C54.7299 43.5087 55.1925 43.2294 55.1925 42.6225C55.1925 42.3817 55.1058 42.0638 54.9708 41.7171L53.3808 37.575H47.7242L46.2016 41.6978C46.0667 42.0542 45.9993 42.3432 45.9993 42.5647C45.9993 43.2294 46.5485 43.5184 48.0326 43.5665V43.7881V43.7785ZM50.4802 30.0807L47.8495 37.1704H53.217L50.4802 30.0807Z" fill="#1D1D1B"/>
<path d="M72.2298 43.9999L61.5333 30.4562V41.9385C61.5333 43.2678 62.0826 43.4412 64.1448 43.5568V43.7783H58.8833V43.5568C60.5215 43.4219 61.0515 43.2678 61.0515 41.9385V29.859C60.2998 28.9921 59.6349 28.4815 58.8447 28.443V28.2214H62.4873L71.9407 40.5225V30.0613C71.9407 28.732 71.3914 28.5586 69.3292 28.443V28.2214H74.5908V28.443C72.9526 28.5778 72.4226 28.732 72.4226 30.0613V43.9999H72.2202H72.2298Z" fill="#1D1D1B"/>
<path d="M88.7275 28.2215L89.0551 32.8549H88.8528C87.8409 29.5509 87.1086 28.6261 84.9404 28.6261H83.3311V42.0253C83.3311 43.2872 83.9478 43.422 85.4704 43.5569V43.7784H79.0814V43.5569C80.6039 43.422 81.2496 43.2872 81.2496 42.0253V28.6165H79.6114C77.4432 28.6165 76.7204 29.5509 75.6989 32.8453H75.4966L75.8242 28.2119H88.7082L88.7275 28.2215Z" fill="#1D1D1B"/>
<path d="M103.356 35.6869C103.356 40.5418 100.243 44 96.3308 44C91.9076 44 89.46 40.3203 89.46 36.3131C89.46 31.4582 92.5726 28 96.485 28C100.908 28 103.356 31.6797 103.356 35.6869ZM91.7342 35.9952C91.7342 39.6267 93.2375 43.6821 96.5042 43.6821C99.4626 43.6821 101.082 40.224 101.082 35.9952C101.082 32.3636 99.5783 28.3082 96.3115 28.3082C93.3531 28.3082 91.7342 31.7664 91.7342 35.9952Z" fill="#1D1D1B"/>
<path d="M116.808 43.9999L106.112 30.4562V41.9385C106.112 43.2678 106.661 43.4412 108.723 43.5568V43.7783H103.462V43.5568C105.1 43.4219 105.63 43.2678 105.63 41.9385V29.859C104.878 28.9921 104.213 28.4815 103.423 28.443V28.2214H107.066L116.519 40.5225V30.0613C116.519 28.732 115.97 28.5586 113.908 28.443V28.2214H119.169V28.443C117.531 28.5778 117.001 28.732 117.001 30.0613V43.9999H116.799H116.808Z" fill="#1D1D1B"/>
<path d="M137.98 31.304C137.98 35.4461 145.804 33.9627 145.804 39.4148C145.804 42.189 143.376 44 140.591 44C138.606 44 136.9 43.3835 135.975 42.5551L135.84 38.7213H136.062C136.573 41.6496 138.336 43.6629 140.639 43.6629C142.721 43.6629 143.974 42.2854 143.974 40.4455C143.974 35.5521 136.149 37.4305 136.149 32.2191C136.149 29.888 138.086 28 141.044 28C142.586 28 143.916 28.5298 145.091 29.2812V32.5178H144.889C144.446 29.9266 142.942 28.3082 140.957 28.3082C138.972 28.3082 137.97 29.705 137.97 31.304" fill="#1D1D1B"/>
<path d="M160.336 28.2215L160.664 32.8549H160.462C159.45 29.5509 158.717 28.6261 156.549 28.6261H154.94V42.0253C154.94 43.2872 155.557 43.422 157.079 43.5569V43.7784H150.69V43.5569C152.213 43.422 152.858 43.2872 152.858 42.0253V28.6165H151.22C149.052 28.6165 148.329 29.5509 147.308 32.8453H147.105L147.433 28.2119H160.317L160.336 28.2215Z" fill="#1D1D1B"/>
<path d="M163.873 43.7785H159.411V43.5569C160.25 43.4702 160.895 43.3354 161.155 42.6033L166.08 29.4642L165.53 28.0193H167.699L173.403 42.7381C173.644 43.3354 174.29 43.5376 175.013 43.5569V43.7785H169.134V43.5569C170.57 43.5087 171.033 43.2294 171.033 42.6225C171.033 42.3817 170.946 42.0638 170.811 41.7171L169.221 37.575H163.565L162.042 41.6978C161.907 42.0542 161.84 42.3432 161.84 42.5647C161.84 43.2294 162.389 43.5184 163.873 43.5665V43.7881V43.7785ZM166.33 30.0807L163.699 37.1704H169.067L166.33 30.0807Z" fill="#1D1D1B"/>
<path d="M188.061 43.9999L177.364 30.4562V41.9385C177.364 43.2678 177.913 43.4412 179.976 43.5568V43.7783H174.714V43.5568C176.352 43.4219 176.882 43.2678 176.882 41.9385V29.859C176.131 28.9921 175.466 28.4815 174.676 28.443V28.2214H178.318L187.772 40.5225V30.0613C187.772 28.732 187.222 28.5586 185.16 28.443V28.2214H190.422V28.443C188.783 28.5778 188.253 28.732 188.253 30.0613V43.9999H188.051H188.061Z" fill="#1D1D1B"/>
<path d="M204.558 28.2215L204.886 32.8549H204.684C203.672 29.5509 202.939 28.6261 200.771 28.6261H199.162V42.0253C199.162 43.2872 199.779 43.422 201.301 43.5569V43.7784H194.912V43.5569C196.435 43.422 197.08 43.2872 197.08 42.0253V28.6165H195.442C193.274 28.6165 192.551 29.5509 191.53 32.8453H191.327L191.655 28.2119H204.539L204.558 28.2215Z" fill="#1D1D1B"/>
<path d="M219.186 35.6869C219.186 40.5418 216.074 44 212.161 44C207.738 44 205.291 40.3203 205.291 36.3131C205.291 31.4582 208.403 28 212.316 28C216.739 28 219.186 31.6797 219.186 35.6869ZM207.565 35.9952C207.565 39.6267 209.068 43.6821 212.335 43.6821C215.293 43.6821 216.912 40.224 216.912 35.9952C216.912 32.3636 215.409 28.3082 212.142 28.3082C209.184 28.3082 207.565 31.7664 207.565 35.9952Z" fill="#1D1D1B"/>
<path d="M232.639 43.9999L221.942 30.4562V41.9385C221.942 43.2678 222.492 43.4412 224.554 43.5568V43.7783H219.292V43.5568C220.931 43.4219 221.461 43.2678 221.461 41.9385V29.859C220.709 28.9921 220.044 28.4815 219.254 28.443V28.2214H222.897L232.35 40.5225V30.0613C232.35 28.732 231.801 28.5586 229.738 28.443V28.2214H235V28.443C233.362 28.5778 232.832 28.732 232.832 30.0613V43.9999H232.629H232.639Z" fill="#1D1D1B"/>
<path d="M128.767 38.8945C128.102 39.5688 127.216 40.0023 126.079 40.0023C124.566 40.0023 123.091 39.1065 123.091 37.5267C123.091 36.2841 124.026 35.4845 125.173 35.0125L125.057 34.8777C124.672 34.4538 124.19 33.7988 124.19 32.8933C124.19 31.6892 125.202 30.6296 126.57 30.6296C127.938 30.6296 128.806 31.487 128.806 32.4599C128.806 33.6543 127.755 34.2227 126.416 34.7043L129.316 37.8446C129.663 37.2473 129.856 36.5345 129.856 35.7928C129.856 35.0511 129.278 34.9066 128.43 34.8969V34.7525H131.514V34.8969C130.685 34.9066 130.299 35.0703 130.184 35.8313C130.068 36.6116 129.818 37.3533 129.461 37.9891L129.663 38.2202C130.637 39.2702 131.292 39.6748 131.928 39.7422V39.8771H129.914C129.586 39.7037 129.336 39.4918 128.777 38.9042M128.613 38.7211C128.468 38.5767 128.324 38.4129 128.15 38.2299L125.279 35.0992C124.575 35.5038 124.286 36.2552 124.286 37.0836C124.286 38.5478 125.308 39.4725 126.657 39.4725C127.418 39.4725 128.093 39.1835 128.623 38.7211M126.348 34.6176C127.553 34.1456 127.832 33.4135 127.832 32.4406C127.832 31.5833 127.408 30.8223 126.483 30.8223C125.693 30.8223 125.134 31.3906 125.134 32.3924C125.134 33.3942 125.79 34.0011 126.194 34.4731L126.339 34.6272L126.348 34.6176Z" fill="#1D1D1B"/>
<path d="M131.793 41.3704H123.149V42.7382H131.793V41.3704Z" fill="#8B3C50"/>
</g>
<path fill-rule="evenodd" clip-rule="evenodd" d="M350.53 29.5304L351.061 29.0001L350 27.9395L349.47 28.4698L343 34.9394L336.53 28.4698L336 27.9395L334.939 29.0001L335.47 29.5304L341.939 36.0001L335.47 42.4698L334.939 43.0001L336 44.0608L336.53 43.5304L343 37.0608L349.47 43.5304L350 44.0608L351.061 43.0001L350.53 42.4698L344.061 36.0001L350.53 29.5304Z" fill="#8B3C50"/>
<rect width="375" height="4" transform="matrix(1 0 0 -1 0 4)" fill="#8B3C50"/>
<defs>
<clipPath id="clip0_1_1139">
<rect width="215" height="16" fill="white" transform="translate(20 28)"/>
</clipPath>
</defs>
</svg>
